# xmcd
#
# Track frame offsets:
#	150
#	15235
#	32355
#	47419
#	63721
#	79525
#	88085
#	106201
#	124822
#	141159
#	159303
#
# Disc length: 2361 seconds
#
# Revision: 1
# Processed by: cddbd v1.5.2PL0 Copyright (c) Steve Scherf et al.
# Submitted via: audiograbber 1.83.01
#
DISCID=7c09370b
DTITLE=John Hammond - Live in Greece (1983)
DYEAR=2006
DGENRE=Blues
TTITLE0=Honest I Do
TTITLE1=Statesboro Blues
TTITLE2=No Money Down
TTITLE3=Steady Rolling Man
TTITLE4=Spoonful
TTITLE5=Big Star Falling Or Taint Long For Day
TTITLE6=You Can't Judge A Book By Looking At The Cover
TTITLE7=See That My Grave Is Kept Clean
TTITLE8=Tell Me Mama
TTITLE9=Low Down Dog Blues
TTITLE10=Who Do You Love
EXTD=
EXTT0=
EXTT1=
EXTT2=
EXTT3=
EXTT4=
EXTT5=
EXTT6=
EXTT7=
EXTT8=
EXTT9=
EXTT10=
PLAYORDER=
